<svg xmlns="http://www.w3.org/2000/svg" viewBox="0 0 59.71 104.32"><defs><style>.a,.b,.c,.d,.e,.f{fill:none;stroke:#fff;}.a,.b,.c,.f{stroke-linecap:round;}.a{stroke-width:0.12px;}.b,.e{stroke-width:0.24px;}.c{stroke-width:0.18px;}.d{stroke-width:0.48px;}.f{stroke-width:0.6px;}.g{fill:#fff;}</style></defs><line class="a" x1="37.25" y1="44.76" x2="46.54" y2="52.44"/><line class="b" x1="26.91" y1="81.22" x2="30.23" y2="83.97"/><line class="b" x1="26.87" y1="36.23" x2="26.87" y2="81.23"/><line class="a" x1="10.6" y1="22.71" x2="26.91" y2="36.2"/><line class="a" x1="55.94" y1="42.95" x2="48.92" y2="51.43"/><line class="c" x1="48.92" y1="51.43" x2="1.19" y2="11.95"/><line class="a" x1="1.19" y1="11.95" x2="8.21" y2="3.46"/><line class="a" x1="1.25" y1="11.93" x2="1.25" y2="31.37"/><polyline class="a" points="48.89 70.85 48.89 51.43 48.89 70.91 57.89 60.03 57.89 40.49"/><line class="a" x1="46.54" y1="51.65" x2="3.58" y2="16.11"/><line class="c" x1="30.23" y1="53.24" x2="46.54" y2="66.73"/><polyline class="d" points="30.23 98.27 30.23 53.24 37.25 44.76"/><line class="b" x1="19.89" y1="89.71" x2="26.91" y2="81.22"/><line class="b" x1="19.89" y1="89.71" x2="30.23" y2="98.26"/><polyline class="c" points="26.93 36.2 19.91 44.69 19.91 89.71 19.91 44.63"/><polyline class="e" points="3.54 31.15 19.85 44.64 26.87 36.15 19.85 44.64"/><line class="a" x1="55.94" y1="42.95" x2="57.92" y2="40.56"/><line class="a" x1="10.19" y1="1.07" x2="8.21" y2="3.46"/><line class="a" x1="41.61" y1="91.56" x2="39.64" y2="93.94"/><polygon class="f" points="17.57 89.95 32.69 102.46 41.69 91.58 41.69 64.95 49.01 70.93 56.03 62.44 58.01 60.05 58.01 40.6 10.25 1.09 1.25 11.97 1.25 31.43 17.57 44.94 17.57 89.95"/><polyline class="b" points="46.55 66.71 46.55 51.65 3.59 16.11"/><polygon class="g" points="48.95 51.43 57.95 40.55 57.95 60.03 48.95 70.91 48.95 51.43"/><polyline class="g" points="26.99 36.23 26.99 81.22 19.91 89.71 19.91 44.69 26.99 36.2 19.91 44.69 19.91 89.71 19.91 44.63"/><polygon class="g" points="3.59 16.05 3.47 31.18 10.55 22.72 10.55 21.82 3.59 16.05"/><polygon class="g" points="32.63 57 32.62 102.14 41.63 91.26 41.63 64.52 32.63 57"/></svg>