<svg id="Layer_3" data-name="Layer 3" xmlns="http://www.w3.org/2000/svg" viewBox="0 0 494.05 865.11"><defs><style>.cls-1,.cls-2,.cls-3,.cls-4,.cls-5,.cls-6{fill:none;stroke:#000;}.cls-1,.cls-2,.cls-3,.cls-6{stroke-linecap:round;}.cls-2,.cls-5{stroke-width:2px;}.cls-3{stroke-width:1.5px;}.cls-4{stroke-width:4px;}.cls-6{stroke-width:5px;}</style></defs><g id="Layer_01" data-name="Layer 01"><line class="cls-1" x1="310.5" y1="374.16" x2="387.9" y2="438.19"/><line class="cls-2" x1="224.32" y1="678.02" x2="252" y2="700.92"/><line class="cls-2" x1="224.32" y1="302.86" x2="224.32" y2="678.02"/><line class="cls-1" x1="88.42" y1="190.44" x2="224.32" y2="302.86"/><line class="cls-1" x1="466.29" y1="359.06" x2="407.79" y2="429.77"/><line class="cls-3" x1="407.79" y1="429.77" x2="10.04" y2="100.72"/><line class="cls-1" x1="10.04" y1="100.72" x2="68.53" y2="30.01"/><line class="cls-1" x1="10.04" y1="100.72" x2="10.04" y2="262.95"/><polyline class="cls-1" points="407.79 592 407.79 429.77 407.79 592 482.74 501.4 482.74 339.17"/><line class="cls-1" x1="387.9" y1="431.56" x2="29.92" y2="135.42"/><line class="cls-3" x1="252" y1="444.87" x2="387.9" y2="557.29"/><polyline class="cls-4" points="252 820.03 252 444.87 310.5 374.16"/><line class="cls-2" x1="165.82" y1="748.73" x2="224.32" y2="678.02"/><line class="cls-2" x1="165.82" y1="748.73" x2="252" y2="820.03"/><polyline class="cls-3" points="224.32 302.86 165.82 373.57 165.82 748.74 165.82 373.57"/><polyline class="cls-5" points="29.57 260.72 165.47 373.14 223.97 302.43 165.47 373.14"/><line class="cls-1" x1="466.29" y1="359.06" x2="482.74" y2="339.17"/><line class="cls-1" x1="84.99" y1="10.12" x2="68.53" y2="30.01"/><line class="cls-1" x1="346.84" y1="764.13" x2="330.39" y2="784.02"/><polygon class="cls-6" points="146.24 750.76 272.19 854.96 347.14 764.36 347.14 542.42 408.09 592.22 466.59 521.51 483.04 501.62 483.04 339.39 85.29 10.34 10.34 100.94 10.34 263.17 146.24 375.6 146.24 750.76"/><polyline class="cls-2" points="387.9 557.29 387.9 431.56 29.93 135.42"/></g><g id="Layer_2" data-name="Layer 2"><polygon points="407.79 429.77 482.74 339.17 482.74 501.4 407.79 592 407.79 429.77"/><polyline points="224.32 302.86 224.32 678.02 165.82 748.74 165.82 373.57 224.32 302.86 165.82 373.57 165.82 748.74 165.82 373.57"/><polygon points="29.93 134.41 28.96 261.54 88.42 190.44 88.42 182.84 29.93 134.41"/><polygon points="271.94 476.39 271.89 852.1 346.84 761.5 346.88 539.01 271.94 476.39"/></g></svg>